<?xml version="1.0" encoding="utf-8"?>
<!-- Generator: Adobe Illustrator 27.3.1, SVG Export Plug-In . SVG Version: 6.00 Build 0)  -->
<svg version="1.1" id="Flag" xmlns="http://www.w3.org/2000/svg" xmlns:xlink="http://www.w3.org/1999/xlink" x="0px" y="0px"
	 viewBox="0 0 1990 1050" style="enable-background:new 0 0 1990 1050;" xml:space="preserve">
<style type="text/css">
	.st0{fill:#E30A17;}
	.st1{fill:#FFFFFF;}
</style>
<g>
	<rect class="st0" width="1990" height="1050"/>
	<g>
		<path class="st1" d="M687.13,736.48c-104.81,0-189.77-93.36-189.77-208.52c0-115.16,84.96-208.52,189.77-208.52
			c62.99,0,118.8,33.72,153.31,85.63c-40.4-82.66-119.81-138.87-211.18-138.87c-132.31,0-239.57,117.86-239.57,263.24
			c0,145.38,107.26,263.24,239.57,263.24c95.35,0,177.68-61.21,216.24-149.82C811.54,699.27,753.3,736.48,687.13,736.48z"/>
	</g>
	<polygon class="st1" points="898.48,395.53 952.22,477.43 1039.71,446.59 985.43,528.05 1039.16,609.94 951.88,578.4 897.6,659.85 
		897.94,558.89 810.66,527.34 898.14,496.5 	"/>
</g>
</svg>
